<?xml version="1.0" encoding="utf-8"?>
<!-- Generated by IcoMoon.io -->
<!DOCTYPE svg PUBLIC "-//W3C//DTD SVG 1.1//EN" "http://www.w3.org/Graphics/SVG/1.1/DTD/svg11.dtd">
<svg version="1.1" xmlns="http://www.w3.org/2000/svg" xmlns:xlink="http://www.w3.org/1999/xlink" width="56" height="64" viewBox="0 0 56 64">
<path d="M24 36h16l4-4-4-4h-8v-12l-4-4-4 4v20zM28 4c-15.465 0-28 12.535-28 28s12.535 28 28 28c15.465 0 28-12.535 28-28s-12.535-28-28-28zM28 52c-11.016 0-20-8.984-20-20 0-10.996 9.012-19.969 20-20 10.988 0.031 20 9.004 20 20 0 11.016-8.984 20-20 20z" fill="#444444"></path>
</svg>
