<?xml version="1.0" encoding="utf-8"?>
<!-- Generated by IcoMoon.io -->
<!DOCTYPE svg PUBLIC "-//W3C//DTD SVG 1.1//EN" "http://www.w3.org/Graphics/SVG/1.1/DTD/svg11.dtd">
<svg version="1.1" xmlns="http://www.w3.org/2000/svg" xmlns:xlink="http://www.w3.org/1999/xlink" width="56" height="64" viewBox="0 0 56 64">
<path d="M28 4c-5.684 0-10.957 1.721-15.371 4.629l-4.629-4.629v16h16l-5.5-5.5c2.84-1.543 6.043-2.5 9.5-2.5 11.047 0 20 8.951 20 20 0 11.047-8.953 20-20 20-11.049 0-20-8.953-20-20 0-2.848 0.611-5.549 1.688-8h-5.688v-6.213c-2.481 4.182-4 9-4 14.213 0 15.465 12.535 28 28 28s28-12.535 28-28c0-15.465-12.535-28-28-28zM27.939 51.938l4.061-3.938v-12h8l4-4-4-4h-8l-4-4-8 8 4 4v12l3.939 3.938z" fill="#444444"></path>
</svg>
